<mxfile host="app.diagrams.net" modified="2024-02-02T20:12:57.307Z" agent="Mozilla/5.0 (X11; Linux x86_64) AppleWebKit/537.36 (KHTML, like Gecko) Chrome/121.0.0.0 Safari/537.36" etag="gFygCgR891HNtEucFyf5" version="23.0.2" type="device">
  <diagram name="PÃ¡gina-1" id="gKUBRUiSrU-fjvPN4aiq">
    <mxGraphModel dx="2261" dy="787" grid="1" gridSize="10" guides="1" tooltips="1" connect="1" arrows="1" fold="1" page="1" pageScale="1" pageWidth="827" pageHeight="1169" math="0" shadow="0">
      <root>
        <mxCell id="0" />
        <mxCell id="1" parent="0" />
        <mxCell id="7daAw42OlFvF_8vheEPW-111" value="" style="whiteSpace=wrap;html=1;fillColor=#f5f5f5;strokeColor=#666666;fontColor=#333333;" parent="1" vertex="1">
          <mxGeometry x="-660" y="320" width="590" height="560" as="geometry" />
        </mxCell>
        <mxCell id="7daAw42OlFvF_8vheEPW-51" value="Util" style="whiteSpace=wrap;html=1;align=center;fillColor=#ffe6cc;strokeColor=#d79b00;" parent="1" vertex="1">
          <mxGeometry x="-646.25" y="445" width="100" height="40" as="geometry" />
        </mxCell>
        <mxCell id="7daAw42OlFvF_8vheEPW-53" value="Cipher" style="whiteSpace=wrap;html=1;align=center;fillColor=#d5e8d4;strokeColor=#82b366;" parent="1" vertex="1">
          <mxGeometry x="-458" y="750.1800000000001" width="100" height="40" as="geometry" />
        </mxCell>
        <mxCell id="7daAw42OlFvF_8vheEPW-54" value="ByteArray" style="whiteSpace=wrap;html=1;align=center;fillColor=#ffe6cc;strokeColor=#d79b00;" parent="1" vertex="1">
          <mxGeometry x="-180" y="620" width="100" height="40" as="geometry" />
        </mxCell>
        <mxCell id="7daAw42OlFvF_8vheEPW-55" value="StateDifferential" style="whiteSpace=wrap;html=1;align=center;fillColor=#dae8fc;strokeColor=#6c8ebf;" parent="1" vertex="1">
          <mxGeometry x="-544" y="660" width="100" height="40" as="geometry" />
        </mxCell>
        <mxCell id="7daAw42OlFvF_8vheEPW-56" value="RelatedKeyDifferential&lt;span style=&quot;white-space: pre;&quot;&gt;&#x9;&lt;/span&gt;" style="whiteSpace=wrap;html=1;align=center;fillColor=#dae8fc;strokeColor=#6c8ebf;" parent="1" vertex="1">
          <mxGeometry x="-390.5" y="660" width="137" height="40" as="geometry" />
        </mxCell>
        <mxCell id="7daAw42OlFvF_8vheEPW-57" value="Biclique" style="whiteSpace=wrap;html=1;align=center;fillColor=#dae8fc;strokeColor=#6c8ebf;" parent="1" vertex="1">
          <mxGeometry x="-458" y="555" width="100" height="40" as="geometry" />
        </mxCell>
        <mxCell id="7daAw42OlFvF_8vheEPW-63" value="" style="endArrow=none;html=1;rounded=0;exitX=0.75;exitY=1;exitDx=0;exitDy=0;entryX=0.5;entryY=0;entryDx=0;entryDy=0;fillColor=#dae8fc;strokeColor=#6c8ebf;" parent="1" source="7daAw42OlFvF_8vheEPW-57" target="7daAw42OlFvF_8vheEPW-56" edge="1">
          <mxGeometry relative="1" as="geometry">
            <mxPoint x="-338" y="505" as="sourcePoint" />
            <mxPoint x="-188" y="504.65999999999997" as="targetPoint" />
          </mxGeometry>
        </mxCell>
        <mxCell id="7daAw42OlFvF_8vheEPW-64" value="N" style="resizable=0;html=1;whiteSpace=wrap;align=right;verticalAlign=bottom;" parent="7daAw42OlFvF_8vheEPW-63" connectable="0" vertex="1">
          <mxGeometry x="1" relative="1" as="geometry">
            <mxPoint x="2" y="-6" as="offset" />
          </mxGeometry>
        </mxCell>
        <mxCell id="7daAw42OlFvF_8vheEPW-66" value="" style="endArrow=none;html=1;rounded=0;exitX=0.25;exitY=1;exitDx=0;exitDy=0;entryX=0.5;entryY=0;entryDx=0;entryDy=0;fillColor=#dae8fc;strokeColor=#6c8ebf;" parent="1" source="7daAw42OlFvF_8vheEPW-57" target="7daAw42OlFvF_8vheEPW-55" edge="1">
          <mxGeometry relative="1" as="geometry">
            <mxPoint x="-158" y="675" as="sourcePoint" />
            <mxPoint x="2" y="675" as="targetPoint" />
          </mxGeometry>
        </mxCell>
        <mxCell id="7daAw42OlFvF_8vheEPW-67" value="1" style="resizable=0;html=1;whiteSpace=wrap;align=right;verticalAlign=bottom;" parent="7daAw42OlFvF_8vheEPW-66" connectable="0" vertex="1">
          <mxGeometry x="1" relative="1" as="geometry" />
        </mxCell>
        <mxCell id="7daAw42OlFvF_8vheEPW-72" value="" style="endArrow=none;html=1;rounded=0;entryX=0.75;entryY=0;entryDx=0;entryDy=0;fillColor=#dae8fc;strokeColor=#6c8ebf;exitX=0.5;exitY=1;exitDx=0;exitDy=0;" parent="1" source="7daAw42OlFvF_8vheEPW-56" target="7daAw42OlFvF_8vheEPW-53" edge="1">
          <mxGeometry relative="1" as="geometry">
            <mxPoint x="-378" y="695" as="sourcePoint" />
            <mxPoint x="-138" y="655" as="targetPoint" />
          </mxGeometry>
        </mxCell>
        <mxCell id="7daAw42OlFvF_8vheEPW-73" value="2" style="resizable=0;html=1;whiteSpace=wrap;align=right;verticalAlign=bottom;" parent="7daAw42OlFvF_8vheEPW-72" connectable="0" vertex="1">
          <mxGeometry x="1" relative="1" as="geometry">
            <mxPoint x="6" as="offset" />
          </mxGeometry>
        </mxCell>
        <mxCell id="7daAw42OlFvF_8vheEPW-74" value="" style="endArrow=none;html=1;rounded=0;exitX=0.5;exitY=1;exitDx=0;exitDy=0;entryX=0.25;entryY=0;entryDx=0;entryDy=0;fillColor=#dae8fc;strokeColor=#6c8ebf;" parent="1" source="7daAw42OlFvF_8vheEPW-55" target="7daAw42OlFvF_8vheEPW-53" edge="1">
          <mxGeometry relative="1" as="geometry">
            <mxPoint x="-246.25" y="681.84" as="sourcePoint" />
            <mxPoint x="-86.25" y="681.84" as="targetPoint" />
          </mxGeometry>
        </mxCell>
        <mxCell id="7daAw42OlFvF_8vheEPW-75" value="2" style="resizable=0;html=1;whiteSpace=wrap;align=right;verticalAlign=bottom;" parent="7daAw42OlFvF_8vheEPW-74" connectable="0" vertex="1">
          <mxGeometry x="1" relative="1" as="geometry">
            <mxPoint x="3" y="-2" as="offset" />
          </mxGeometry>
        </mxCell>
        <mxCell id="7daAw42OlFvF_8vheEPW-77" value="BicliqueTester" style="whiteSpace=wrap;html=1;align=center;fillColor=#f8cecc;strokeColor=#b85450;" parent="1" vertex="1">
          <mxGeometry x="-458" y="445" width="100" height="40" as="geometry" />
        </mxCell>
        <mxCell id="7daAw42OlFvF_8vheEPW-78" value="Main" style="whiteSpace=wrap;html=1;align=center;fillColor=#f8cecc;strokeColor=#b85450;" parent="1" vertex="1">
          <mxGeometry x="-458" y="335" width="100" height="40" as="geometry" />
        </mxCell>
        <mxCell id="7daAw42OlFvF_8vheEPW-79" value="" style="endArrow=none;html=1;rounded=0;exitX=0.5;exitY=1;exitDx=0;exitDy=0;entryX=0.5;entryY=0;entryDx=0;entryDy=0;fillColor=#f8cecc;strokeColor=#b85450;" parent="1" source="7daAw42OlFvF_8vheEPW-78" target="7daAw42OlFvF_8vheEPW-77" edge="1">
          <mxGeometry relative="1" as="geometry">
            <mxPoint x="-508" y="205" as="sourcePoint" />
            <mxPoint x="-408" y="205" as="targetPoint" />
          </mxGeometry>
        </mxCell>
        <mxCell id="7daAw42OlFvF_8vheEPW-80" value="N" style="resizable=0;html=1;whiteSpace=wrap;align=right;verticalAlign=bottom;" parent="7daAw42OlFvF_8vheEPW-79" connectable="0" vertex="1">
          <mxGeometry x="1" relative="1" as="geometry" />
        </mxCell>
        <mxCell id="7daAw42OlFvF_8vheEPW-92" value="" style="endArrow=none;html=1;rounded=0;exitX=0.5;exitY=1;exitDx=0;exitDy=0;entryX=0.5;entryY=0;entryDx=0;entryDy=0;fillColor=#f8cecc;strokeColor=#b85450;" parent="1" source="7daAw42OlFvF_8vheEPW-77" target="7daAw42OlFvF_8vheEPW-57" edge="1">
          <mxGeometry relative="1" as="geometry">
            <mxPoint x="-318" y="545" as="sourcePoint" />
            <mxPoint x="-158" y="545" as="targetPoint" />
          </mxGeometry>
        </mxCell>
        <mxCell id="7daAw42OlFvF_8vheEPW-93" value="N" style="resizable=0;html=1;whiteSpace=wrap;align=right;verticalAlign=bottom;" parent="7daAw42OlFvF_8vheEPW-92" connectable="0" vertex="1">
          <mxGeometry x="1" relative="1" as="geometry" />
        </mxCell>
        <mxCell id="7daAw42OlFvF_8vheEPW-98" value="" style="endArrow=none;html=1;rounded=0;exitX=1;exitY=1;exitDx=0;exitDy=0;entryX=0;entryY=0.5;entryDx=0;entryDy=0;fillColor=#ffe6cc;strokeColor=#d79b00;" parent="1" source="7daAw42OlFvF_8vheEPW-51" target="7daAw42OlFvF_8vheEPW-57" edge="1">
          <mxGeometry relative="1" as="geometry">
            <mxPoint x="-318" y="545" as="sourcePoint" />
            <mxPoint x="-158" y="545" as="targetPoint" />
          </mxGeometry>
        </mxCell>
        <mxCell id="7daAw42OlFvF_8vheEPW-99" value="1" style="resizable=0;html=1;whiteSpace=wrap;align=right;verticalAlign=bottom;" parent="7daAw42OlFvF_8vheEPW-98" connectable="0" vertex="1">
          <mxGeometry x="1" relative="1" as="geometry">
            <mxPoint x="-2" y="-9" as="offset" />
          </mxGeometry>
        </mxCell>
        <mxCell id="7daAw42OlFvF_8vheEPW-100" value="" style="endArrow=none;html=1;rounded=0;exitX=1;exitY=0.5;exitDx=0;exitDy=0;entryX=0;entryY=0.5;entryDx=0;entryDy=0;fillColor=#ffe6cc;strokeColor=#d79b00;" parent="1" source="7daAw42OlFvF_8vheEPW-51" target="7daAw42OlFvF_8vheEPW-77" edge="1">
          <mxGeometry relative="1" as="geometry">
            <mxPoint x="-318" y="545" as="sourcePoint" />
            <mxPoint x="-158" y="545" as="targetPoint" />
          </mxGeometry>
        </mxCell>
        <mxCell id="7daAw42OlFvF_8vheEPW-101" value="1" style="resizable=0;html=1;whiteSpace=wrap;align=right;verticalAlign=bottom;" parent="7daAw42OlFvF_8vheEPW-100" connectable="0" vertex="1">
          <mxGeometry x="1" relative="1" as="geometry" />
        </mxCell>
        <mxCell id="7daAw42OlFvF_8vheEPW-102" value="" style="endArrow=none;html=1;rounded=0;exitX=1;exitY=0;exitDx=0;exitDy=0;entryX=0;entryY=0.5;entryDx=0;entryDy=0;fillColor=#ffe6cc;strokeColor=#d79b00;" parent="1" source="7daAw42OlFvF_8vheEPW-51" target="7daAw42OlFvF_8vheEPW-78" edge="1">
          <mxGeometry relative="1" as="geometry">
            <mxPoint x="-318" y="545" as="sourcePoint" />
            <mxPoint x="-158" y="545" as="targetPoint" />
          </mxGeometry>
        </mxCell>
        <mxCell id="7daAw42OlFvF_8vheEPW-103" value="1" style="resizable=0;html=1;whiteSpace=wrap;align=right;verticalAlign=bottom;" parent="7daAw42OlFvF_8vheEPW-102" connectable="0" vertex="1">
          <mxGeometry x="1" relative="1" as="geometry" />
        </mxCell>
        <mxCell id="7daAw42OlFvF_8vheEPW-104" value="Rijndael" style="whiteSpace=wrap;html=1;align=center;fillColor=#d5e8d4;strokeColor=#82b366;" parent="1" vertex="1">
          <mxGeometry x="-541.25" y="818.34" width="100" height="40" as="geometry" />
        </mxCell>
        <mxCell id="7daAw42OlFvF_8vheEPW-105" value="Serpent" style="whiteSpace=wrap;html=1;align=center;fillColor=#d5e8d4;strokeColor=#82b366;" parent="1" vertex="1">
          <mxGeometry x="-374.75" y="818.34" width="100" height="40" as="geometry" />
        </mxCell>
        <mxCell id="7daAw42OlFvF_8vheEPW-106" value="" style="endArrow=classic;html=1;rounded=0;exitX=0.25;exitY=1;exitDx=0;exitDy=0;entryX=0.5;entryY=0;entryDx=0;entryDy=0;fillColor=#d5e8d4;strokeColor=#82b366;" parent="1" source="7daAw42OlFvF_8vheEPW-53" target="7daAw42OlFvF_8vheEPW-104" edge="1">
          <mxGeometry width="50" height="50" relative="1" as="geometry">
            <mxPoint x="-608.25" y="775.1800000000001" as="sourcePoint" />
            <mxPoint x="-558.25" y="725.1800000000001" as="targetPoint" />
          </mxGeometry>
        </mxCell>
        <mxCell id="7daAw42OlFvF_8vheEPW-107" value="" style="endArrow=classic;html=1;rounded=0;entryX=0.5;entryY=0;entryDx=0;entryDy=0;exitX=0.75;exitY=1;exitDx=0;exitDy=0;fillColor=#d5e8d4;strokeColor=#82b366;" parent="1" source="7daAw42OlFvF_8vheEPW-53" target="7daAw42OlFvF_8vheEPW-105" edge="1">
          <mxGeometry width="50" height="50" relative="1" as="geometry">
            <mxPoint x="-608.25" y="775.1800000000001" as="sourcePoint" />
            <mxPoint x="-558.25" y="725.1800000000001" as="targetPoint" />
          </mxGeometry>
        </mxCell>
        <mxCell id="j37pGJd7Uj5yfGfqSnhW-1" value="Range" style="whiteSpace=wrap;html=1;align=center;fillColor=#ffe6cc;strokeColor=#d79b00;" parent="1" vertex="1">
          <mxGeometry x="-269.75" y="390" width="100" height="40" as="geometry" />
        </mxCell>
        <mxCell id="j37pGJd7Uj5yfGfqSnhW-2" value="" style="endArrow=none;html=1;rounded=0;exitX=0;exitY=0;exitDx=0;exitDy=0;fillColor=#ffe6cc;strokeColor=#d79b00;entryX=1;entryY=0.5;entryDx=0;entryDy=0;" parent="1" source="j37pGJd7Uj5yfGfqSnhW-1" target="7daAw42OlFvF_8vheEPW-78" edge="1">
          <mxGeometry relative="1" as="geometry">
            <mxPoint x="-561" y="510" as="sourcePoint" />
            <mxPoint x="-390" y="360" as="targetPoint" />
          </mxGeometry>
        </mxCell>
        <mxCell id="j37pGJd7Uj5yfGfqSnhW-3" value="1" style="resizable=0;html=1;whiteSpace=wrap;align=right;verticalAlign=bottom;" parent="j37pGJd7Uj5yfGfqSnhW-2" connectable="0" vertex="1">
          <mxGeometry x="1" relative="1" as="geometry" />
        </mxCell>
        <mxCell id="j37pGJd7Uj5yfGfqSnhW-4" value="" style="endArrow=none;html=1;rounded=0;entryX=1;entryY=0.5;entryDx=0;entryDy=0;fillColor=#ffe6cc;strokeColor=#d79b00;exitX=0;exitY=1;exitDx=0;exitDy=0;" parent="1" source="j37pGJd7Uj5yfGfqSnhW-1" target="7daAw42OlFvF_8vheEPW-77" edge="1">
          <mxGeometry relative="1" as="geometry">
            <mxPoint x="-551" y="520" as="sourcePoint" />
            <mxPoint x="-438" y="375" as="targetPoint" />
          </mxGeometry>
        </mxCell>
        <mxCell id="j37pGJd7Uj5yfGfqSnhW-5" value="N" style="resizable=0;html=1;whiteSpace=wrap;align=right;verticalAlign=bottom;" parent="j37pGJd7Uj5yfGfqSnhW-4" connectable="0" vertex="1">
          <mxGeometry x="1" relative="1" as="geometry">
            <mxPoint x="11" y="-4" as="offset" />
          </mxGeometry>
        </mxCell>
        <mxCell id="j37pGJd7Uj5yfGfqSnhW-6" value="" style="endArrow=none;html=1;rounded=0;entryX=1;entryY=1;entryDx=0;entryDy=0;fillColor=#ffe6cc;strokeColor=#d79b00;exitX=0.25;exitY=0;exitDx=0;exitDy=0;" parent="1" source="7daAw42OlFvF_8vheEPW-54" target="7daAw42OlFvF_8vheEPW-77" edge="1">
          <mxGeometry relative="1" as="geometry">
            <mxPoint x="-242" y="540" as="sourcePoint" />
            <mxPoint x="-330" y="575" as="targetPoint" />
          </mxGeometry>
        </mxCell>
        <mxCell id="j37pGJd7Uj5yfGfqSnhW-7" value="N" style="resizable=0;html=1;whiteSpace=wrap;align=right;verticalAlign=bottom;" parent="j37pGJd7Uj5yfGfqSnhW-6" connectable="0" vertex="1">
          <mxGeometry x="1" relative="1" as="geometry">
            <mxPoint x="13" y="4" as="offset" />
          </mxGeometry>
        </mxCell>
        <mxCell id="j37pGJd7Uj5yfGfqSnhW-8" value="" style="endArrow=none;html=1;rounded=0;entryX=1;entryY=0.5;entryDx=0;entryDy=0;fillColor=#ffe6cc;strokeColor=#d79b00;exitX=0;exitY=0.25;exitDx=0;exitDy=0;" parent="1" source="7daAw42OlFvF_8vheEPW-54" target="7daAw42OlFvF_8vheEPW-57" edge="1">
          <mxGeometry relative="1" as="geometry">
            <mxPoint x="-250" y="450" as="sourcePoint" />
            <mxPoint x="-338" y="485" as="targetPoint" />
          </mxGeometry>
        </mxCell>
        <mxCell id="j37pGJd7Uj5yfGfqSnhW-9" value="N" style="resizable=0;html=1;whiteSpace=wrap;align=right;verticalAlign=bottom;" parent="j37pGJd7Uj5yfGfqSnhW-8" connectable="0" vertex="1">
          <mxGeometry x="1" relative="1" as="geometry">
            <mxPoint x="12" as="offset" />
          </mxGeometry>
        </mxCell>
        <mxCell id="j37pGJd7Uj5yfGfqSnhW-10" value="" style="endArrow=none;html=1;rounded=0;entryX=0.94;entryY=0.025;entryDx=0;entryDy=0;fillColor=#ffe6cc;strokeColor=#d79b00;exitX=0;exitY=0.5;exitDx=0;exitDy=0;entryPerimeter=0;" parent="1" source="7daAw42OlFvF_8vheEPW-54" target="7daAw42OlFvF_8vheEPW-55" edge="1">
          <mxGeometry relative="1" as="geometry">
            <mxPoint x="-240" y="460" as="sourcePoint" />
            <mxPoint x="-328" y="495" as="targetPoint" />
          </mxGeometry>
        </mxCell>
        <mxCell id="j37pGJd7Uj5yfGfqSnhW-11" value="N" style="resizable=0;html=1;whiteSpace=wrap;align=right;verticalAlign=bottom;" parent="j37pGJd7Uj5yfGfqSnhW-10" connectable="0" vertex="1">
          <mxGeometry x="1" relative="1" as="geometry">
            <mxPoint x="10" y="-3" as="offset" />
          </mxGeometry>
        </mxCell>
        <mxCell id="j37pGJd7Uj5yfGfqSnhW-12" value="" style="endArrow=none;html=1;rounded=0;entryX=1;entryY=0;entryDx=0;entryDy=0;fillColor=#ffe6cc;strokeColor=#d79b00;exitX=0.25;exitY=1;exitDx=0;exitDy=0;" parent="1" source="7daAw42OlFvF_8vheEPW-54" target="7daAw42OlFvF_8vheEPW-53" edge="1">
          <mxGeometry relative="1" as="geometry">
            <mxPoint x="-230" y="470" as="sourcePoint" />
            <mxPoint x="-318" y="505" as="targetPoint" />
          </mxGeometry>
        </mxCell>
        <mxCell id="j37pGJd7Uj5yfGfqSnhW-13" value="N" style="resizable=0;html=1;whiteSpace=wrap;align=right;verticalAlign=bottom;" parent="j37pGJd7Uj5yfGfqSnhW-12" connectable="0" vertex="1">
          <mxGeometry x="1" relative="1" as="geometry">
            <mxPoint x="6" as="offset" />
          </mxGeometry>
        </mxCell>
        <mxCell id="j37pGJd7Uj5yfGfqSnhW-14" value="" style="endArrow=none;html=1;rounded=0;entryX=1;entryY=0;entryDx=0;entryDy=0;fillColor=#ffe6cc;strokeColor=#d79b00;exitX=0;exitY=0.75;exitDx=0;exitDy=0;" parent="1" source="7daAw42OlFvF_8vheEPW-54" target="7daAw42OlFvF_8vheEPW-56" edge="1">
          <mxGeometry relative="1" as="geometry">
            <mxPoint x="-220" y="480" as="sourcePoint" />
            <mxPoint x="-308" y="515" as="targetPoint" />
          </mxGeometry>
        </mxCell>
        <mxCell id="j37pGJd7Uj5yfGfqSnhW-15" value="N" style="resizable=0;html=1;whiteSpace=wrap;align=right;verticalAlign=bottom;" parent="j37pGJd7Uj5yfGfqSnhW-14" connectable="0" vertex="1">
          <mxGeometry x="1" relative="1" as="geometry" />
        </mxCell>
        <mxCell id="0GXIjJzsjxUH58LTbjOP-1" style="edgeStyle=orthogonalEdgeStyle;rounded=0;orthogonalLoop=1;jettySize=auto;html=1;exitX=0.5;exitY=1;exitDx=0;exitDy=0;" edge="1" parent="1" source="7daAw42OlFvF_8vheEPW-111" target="7daAw42OlFvF_8vheEPW-111">
          <mxGeometry relative="1" as="geometry" />
        </mxCell>
      </root>
    </mxGraphModel>
  </diagram>
</mxfile>
